<svg width="233" height="205" viewBox="0 0 233 205" fill="none" xmlns="http://www.w3.org/2000/svg">
<mask id="path-1-inside-1_351_49611" fill="white">
<path fill-rule="evenodd" clip-rule="evenodd" d="M104.955 7.32499C110.149 -1.67084 123.133 -1.67083 128.327 7.325L230.578 184.43C235.772 193.426 229.28 204.671 218.893 204.671H14.3889C4.00137 204.671 -2.49079 193.426 2.70295 184.43L104.955 7.32499ZM175.874 173.19C180.748 173.248 183.807 167.95 181.32 163.757L120.822 61.7843C118.385 57.6772 112.428 57.7126 110.04 61.8483L51.9783 162.414C49.5905 166.55 52.5384 171.727 57.3135 171.783L175.874 173.19Z"/>
</mask>
<path fill-rule="evenodd" clip-rule="evenodd" d="M104.955 7.32499C110.149 -1.67084 123.133 -1.67083 128.327 7.325L230.578 184.43C235.772 193.426 229.28 204.671 218.893 204.671H14.3889C4.00137 204.671 -2.49079 193.426 2.70295 184.43L104.955 7.32499ZM175.874 173.19C180.748 173.248 183.807 167.95 181.32 163.757L120.822 61.7843C118.385 57.6772 112.428 57.7126 110.04 61.8483L51.9783 162.414C49.5905 166.55 52.5384 171.727 57.3135 171.783L175.874 173.19Z" fill="#6D0DE2"/>
<path d="M128.327 7.325L116.641 14.0719L116.641 14.0719L128.327 7.325ZM104.955 7.32499L116.641 14.0719L116.641 14.0719L104.955 7.32499ZM230.578 184.43L218.893 191.177L230.578 184.43ZM2.70295 184.43L14.3889 191.177H14.3889L2.70295 184.43ZM181.32 163.757L192.925 156.872L192.925 156.872L181.32 163.757ZM175.874 173.19L176.034 159.697H176.034L175.874 173.19ZM120.822 61.7843L132.427 54.8993L132.427 54.8992L120.822 61.7843ZM110.04 61.8483L121.726 68.5952L121.726 68.5952L110.04 61.8483ZM51.9783 162.414L40.2923 155.667L40.2923 155.667L51.9783 162.414ZM57.3135 171.783L57.4737 158.29H57.4736L57.3135 171.783ZM140.013 0.578134C129.625 -17.4135 103.656 -17.4136 93.2689 0.57812L116.641 14.0719C116.651 14.0544 116.659 14.0415 116.665 14.0325C116.671 14.0235 116.675 14.0179 116.678 14.015C116.68 14.0121 116.68 14.0115 116.679 14.0127C116.678 14.0138 116.676 14.0163 116.673 14.0198C116.665 14.0271 116.655 14.036 116.643 14.045C116.631 14.054 116.619 14.0614 116.609 14.067C116.588 14.0783 116.58 14.0795 116.588 14.0775C116.592 14.0765 116.598 14.075 116.608 14.0738C116.618 14.0726 116.629 14.0719 116.641 14.0719C116.653 14.0719 116.664 14.0726 116.673 14.0738C116.683 14.075 116.69 14.0765 116.694 14.0775C116.701 14.0795 116.693 14.0783 116.673 14.067C116.662 14.0614 116.651 14.054 116.639 14.0451C116.627 14.036 116.616 14.0271 116.609 14.0198C116.605 14.0163 116.603 14.0138 116.602 14.0127C116.601 14.0115 116.602 14.0121 116.604 14.015C116.606 14.0179 116.61 14.0235 116.616 14.0325C116.622 14.0415 116.631 14.0544 116.641 14.0719L140.013 0.578134ZM242.264 177.684L140.013 0.578132L116.641 14.0719L218.893 191.177L242.264 177.684ZM218.893 218.165C239.668 218.165 252.652 195.675 242.264 177.684L218.893 191.177C218.903 191.195 218.91 191.208 218.914 191.218C218.919 191.228 218.922 191.234 218.923 191.238C218.925 191.241 218.925 191.242 218.924 191.24C218.924 191.239 218.923 191.236 218.922 191.231C218.919 191.221 218.917 191.207 218.915 191.192C218.913 191.177 218.913 191.164 218.913 191.152C218.913 191.129 218.916 191.121 218.914 191.129C218.913 191.132 218.911 191.139 218.907 191.148C218.903 191.157 218.898 191.167 218.893 191.177C218.887 191.188 218.88 191.197 218.875 191.205C218.869 191.212 218.864 191.218 218.861 191.22C218.856 191.226 218.861 191.219 218.881 191.207C218.891 191.201 218.903 191.195 218.917 191.189C218.931 191.183 218.943 191.179 218.954 191.176C218.958 191.174 218.962 191.174 218.963 191.173C218.965 191.173 218.964 191.173 218.96 191.174C218.957 191.174 218.95 191.175 218.939 191.176C218.928 191.177 218.913 191.177 218.893 191.177V218.165ZM14.3889 218.165H218.893V191.177H14.3889V218.165ZM-8.98297 177.684C-19.3704 195.675 -6.38615 218.165 14.3889 218.165V191.177C14.3687 191.177 14.3534 191.177 14.3426 191.176C14.3318 191.175 14.3248 191.174 14.3212 191.174C14.3176 191.173 14.3167 191.173 14.3183 191.173C14.3198 191.174 14.3231 191.174 14.3279 191.176C14.3379 191.179 14.3507 191.183 14.3647 191.189C14.3785 191.195 14.3906 191.201 14.4006 191.207C14.4207 191.219 14.4258 191.226 14.4202 191.22C14.4175 191.218 14.4127 191.212 14.4069 191.205C14.401 191.197 14.3948 191.188 14.3889 191.177C14.3829 191.167 14.3781 191.157 14.3743 191.148C14.3705 191.139 14.3683 191.132 14.3672 191.129C14.3651 191.121 14.3683 191.129 14.3687 191.152C14.3689 191.164 14.3684 191.177 14.3666 191.192C14.3649 191.207 14.3623 191.221 14.3597 191.231C14.3584 191.236 14.3574 191.239 14.3569 191.24C14.3565 191.242 14.3567 191.241 14.3581 191.238C14.3594 191.234 14.3622 191.228 14.367 191.218C14.3717 191.208 14.3788 191.195 14.3889 191.177L-8.98297 177.684ZM93.2689 0.578117L-8.98297 177.684L14.3889 191.177L116.641 14.0719L93.2689 0.578117ZM169.715 170.642C166.829 165.778 170.379 159.63 176.034 159.697L175.714 186.683C191.118 186.866 200.785 170.121 192.925 156.872L169.715 170.642ZM109.216 68.6694L169.715 170.642L192.925 156.872L132.427 54.8993L109.216 68.6694ZM121.726 68.5952C118.956 73.3938 112.044 73.4348 109.216 68.6694L132.427 54.8992C124.726 41.9197 105.9 42.0314 98.3542 55.1014L121.726 68.5952ZM63.6642 169.161L121.726 68.5952L98.3542 55.1014L40.2923 155.667L63.6642 169.161ZM57.4736 158.29C63.0143 158.356 66.4346 164.363 63.6642 169.161L40.2923 155.667C32.7464 168.737 42.0624 185.097 57.1534 185.276L57.4736 158.29ZM176.034 159.697L57.4737 158.29L57.1534 185.276L175.714 186.683L176.034 159.697Z" fill="#6D0DE2" mask="url(#path-1-inside-1_351_49611)"/>
</svg>
