<svg width="15" height="15" viewBox="0 0 15 15" fill="none" xmlns="http://www.w3.org/2000/svg">
<path d="M2.45135 0.0581665C1.33412 0.0581665 0.425781 0.966507 0.425781 2.08373V12.2116C0.425781 13.3288 1.33412 14.2371 2.45135 14.2371H12.5792C13.6964 14.2371 14.6048 13.3288 14.6048 12.2116V2.08373C14.6048 0.966507 13.6964 0.0581665 12.5792 0.0581665H2.45135ZM11.8544 2.71672L8.5692 6.47036L12.4336 11.5786H9.40791L7.04053 8.4801L4.32817 11.5786H2.82481L6.33791 7.56226L2.63175 2.71672H5.7334L7.87607 5.54936L10.3511 2.71672H11.8544ZM10.6581 10.6797L5.28082 3.5681H4.38513L9.82252 10.6797H10.6549H10.6581Z" fill="black"/>
</svg>
