<svg width="33" height="33" viewBox="0 0 33 33" fill="none" xmlns="http://www.w3.org/2000/svg">
<rect width="32.8564" height="32.8564" rx="16.4282" fill="#56AA7E" fill-opacity="0.2"/>
<path d="M19.9491 20.7108C19.1036 20.7108 18.4256 21.3887 18.4256 22.2342C18.4256 22.6382 18.5861 23.0257 18.8718 23.3114C19.1575 23.5971 19.545 23.7576 19.9491 23.7576C20.3531 23.7576 20.7406 23.5971 21.0263 23.3114C21.312 23.0257 21.4725 22.6382 21.4725 22.2342C21.4725 21.8302 21.312 21.4427 21.0263 21.157C20.7406 20.8713 20.3531 20.7108 19.9491 20.7108ZM7.76172 8.52344V10.0469H9.28514L12.0273 15.8282L10.9914 17.6944C10.8771 17.9077 10.8086 18.159 10.8086 18.4256C10.8086 18.8297 10.9691 19.2172 11.2548 19.5029C11.5404 19.7886 11.9279 19.9491 12.332 19.9491H21.4725V18.4256H12.6519C12.6014 18.4256 12.5529 18.4056 12.5172 18.3699C12.4815 18.3342 12.4615 18.2857 12.4615 18.2352C12.4615 18.1971 12.4691 18.1667 12.4843 18.1438L13.1698 16.9022H18.8446C19.4159 16.9022 19.9186 16.5823 20.1776 16.1177L22.9045 11.1894C22.9578 11.0675 22.9959 10.9381 22.9959 10.8086C22.9959 10.6065 22.9156 10.4128 22.7728 10.27C22.6299 10.1271 22.4362 10.0469 22.2342 10.0469H10.9685L10.2525 8.52344M12.332 20.7108C11.4865 20.7108 10.8086 21.3887 10.8086 22.2342C10.8086 22.6382 10.9691 23.0257 11.2548 23.3114C11.5404 23.5971 11.9279 23.7576 12.332 23.7576C12.736 23.7576 13.1235 23.5971 13.4092 23.3114C13.6949 23.0257 13.8554 22.6382 13.8554 22.2342C13.8554 21.8302 13.6949 21.4427 13.4092 21.157C13.1235 20.8713 12.736 20.7108 12.332 20.7108Z" fill="#56AA7E"/>
</svg>
