<svg width="33" height="33" viewBox="0 0 33 33" fill="none" xmlns="http://www.w3.org/2000/svg">
<rect width="32.8564" height="32.8564" rx="16.4282" fill="#F97D41" fill-opacity="0.2"/>
<path fill-rule="evenodd" clip-rule="evenodd" d="M13.0333 10.0167C12.2332 10.0167 11.4659 10.3345 10.9002 10.9002C10.3345 11.466 10.0166 12.2333 10.0166 13.0333C10.0166 13.8334 10.3345 14.6007 10.9002 15.1664C11.4659 15.7322 12.2332 16.05 13.0333 16.05C13.8334 16.05 14.6007 15.7322 15.1664 15.1664C15.7321 14.6007 16.05 13.8334 16.05 13.0333C16.05 12.2333 15.7321 11.466 15.1664 10.9002C14.6007 10.3345 13.8334 10.0167 13.0333 10.0167ZM11.525 16.8042C10.7249 16.8042 9.9576 17.122 9.39186 17.6877C8.82613 18.2535 8.5083 19.0208 8.5083 19.8208V20.575C8.5083 20.975 8.66721 21.3587 8.95008 21.6416C9.23295 21.9244 9.6166 22.0833 10.0166 22.0833H16.05C16.45 22.0833 16.8337 21.9244 17.1165 21.6416C17.3994 21.3587 17.5583 20.975 17.5583 20.575V19.8208C17.5583 19.0208 17.2405 18.2535 16.6747 17.6877C16.109 17.122 15.3417 16.8042 14.5416 16.8042H11.525ZM16.9927 15.2242C17.3532 14.5756 17.5583 13.829 17.5583 13.0333C17.5585 12.2667 17.3638 11.5126 16.9927 10.8417C17.4209 10.4365 17.9585 10.1657 18.5389 10.0627C19.1194 9.95969 19.7174 10.029 20.2589 10.2621C20.8004 10.4953 21.2617 10.8819 21.5858 11.3744C21.91 11.8668 22.0827 12.4434 22.0827 13.033C22.0827 13.6225 21.91 14.1991 21.5858 14.6916C21.2617 15.184 20.8004 15.5707 20.2589 15.8038C19.7174 16.0369 19.1194 16.1062 18.5389 16.0032C17.9585 15.9002 17.4209 15.6294 16.9927 15.2242ZM18.6639 22.0833C18.9203 21.6399 19.0674 21.1248 19.0674 20.575V19.8208C19.0688 18.7075 18.6583 17.633 17.915 16.8042H20.575C21.375 16.8042 22.1423 17.122 22.7081 17.6877C23.2738 18.2535 23.5916 19.0208 23.5916 19.8208V20.575C23.5916 20.975 23.4327 21.3587 23.1499 21.6416C22.867 21.9244 22.4833 22.0833 22.0833 22.0833H18.6639Z" fill="#F97D41"/>
</svg>
