<svg width="33" height="33" viewBox="0 0 33 33" fill="none" xmlns="http://www.w3.org/2000/svg">
<rect width="32.8564" height="32.8564" rx="16.4282" fill="#E2BBFE" fill-opacity="0.2"/>
<path fill-rule="evenodd" clip-rule="evenodd" d="M13.9609 9.2413C14.4903 8.79024 15.1581 8.53399 15.8533 8.51516C16.5484 8.49632 17.2291 8.71604 17.7821 9.13778L17.9115 9.2413L18.1977 9.48488C18.4061 9.66272 18.6585 9.78106 18.9285 9.82742L19.064 9.84417L19.4393 9.87462C20.1344 9.93008 20.7895 10.2225 21.2949 10.703C21.8004 11.1835 22.1256 11.823 22.2161 12.5144L22.2321 12.6667L22.2625 13.0427C22.2841 13.3155 22.3788 13.5774 22.5366 13.8009L22.6203 13.909L22.8654 14.1952C23.3165 14.7245 23.5727 15.3923 23.5915 16.0875C23.6104 16.7827 23.3907 17.4634 22.9689 18.0164L22.8654 18.1458L22.6211 18.432C22.4432 18.6403 22.3249 18.8928 22.2785 19.1627L22.2618 19.2982L22.2321 19.6735C22.1766 20.3687 21.8842 21.0238 21.4037 21.5292C20.9232 22.0346 20.2837 22.3598 19.5923 22.4504L19.4393 22.4663L19.064 22.4968C18.7912 22.5183 18.5293 22.613 18.3058 22.7708L18.1977 22.8553L17.9108 23.0989C17.3815 23.5501 16.7138 23.8065 16.0186 23.8254C15.3234 23.8444 14.6426 23.6248 14.0896 23.2032L13.9609 23.0997L13.6747 22.8553C13.4664 22.6775 13.2139 22.5591 12.944 22.5128L12.8085 22.4968L12.4332 22.4663C11.738 22.4109 11.0829 22.1184 10.5775 21.6379C10.0721 21.1574 9.74689 20.518 9.65635 19.8265L9.64036 19.6743L9.60992 19.2982C9.58836 19.0255 9.4937 18.7636 9.33588 18.5401L9.25139 18.432L9.00705 18.145C8.55599 17.6157 8.29974 16.9479 8.2809 16.2527C8.26207 15.5575 8.48179 14.8768 8.90352 14.3238L9.00705 14.1952L9.25063 13.909C9.42847 13.7006 9.54681 13.4482 9.59317 13.1782L9.60992 13.0427L9.64036 12.6674C9.69583 11.9723 9.98826 11.3172 10.4688 10.8118C10.9493 10.3063 11.5887 9.98115 12.2802 9.8906L12.4324 9.87462L12.8085 9.84417C13.0812 9.82261 13.3431 9.72795 13.5666 9.57014L13.6747 9.48564L13.9609 9.2413ZM17.8392 16.9317C17.5364 16.9317 17.246 17.052 17.0318 17.2661C16.8177 17.4802 16.6974 17.7706 16.6974 18.0735C16.6974 18.3763 16.8177 18.6667 17.0318 18.8808C17.246 19.095 17.5364 19.2153 17.8392 19.2153C18.142 19.2153 18.4325 19.095 18.6466 18.8808C18.8607 18.6667 18.981 18.3763 18.981 18.0735C18.981 17.7706 18.8607 17.4802 18.6466 17.2661C18.4325 17.052 18.142 16.9317 17.8392 16.9317ZM17.6817 13.3487L13.1145 17.9159C13.0418 17.9861 12.9838 18.0701 12.9439 18.163C12.904 18.2559 12.883 18.3557 12.8821 18.4568C12.8812 18.5579 12.9005 18.6581 12.9388 18.7517C12.977 18.8452 13.0336 18.9302 13.105 19.0017C13.1765 19.0731 13.2615 19.1297 13.355 19.1679C13.4486 19.2062 13.5488 19.2255 13.6499 19.2246C13.751 19.2237 13.8509 19.2027 13.9437 19.1628C14.0366 19.1229 14.1206 19.0649 14.1908 18.9922L18.758 14.4251C18.8966 14.2815 18.9734 14.0892 18.9716 13.8896C18.9699 13.69 18.8898 13.4991 18.7487 13.358C18.6076 13.2169 18.4167 13.1368 18.2171 13.1351C18.0175 13.1333 17.8252 13.2101 17.6817 13.3487ZM14.0332 13.1257C13.7304 13.1257 13.44 13.246 13.2259 13.4601C13.0117 13.6742 12.8914 13.9647 12.8914 14.2675C12.8914 14.5703 13.0117 14.8607 13.2259 15.0749C13.44 15.289 13.7304 15.4093 14.0332 15.4093C14.3361 15.4093 14.6265 15.289 14.8406 15.0749C15.0547 14.8607 15.175 14.5703 15.175 14.2675C15.175 13.9647 15.0547 13.6742 14.8406 13.4601C14.6265 13.246 14.3361 13.1257 14.0332 13.1257Z" fill="#673AB7"/>
</svg>
