<svg width="318" height="55" viewBox="0 0 318 55" fill="none" xmlns="http://www.w3.org/2000/svg">
<mask id="path-1-outside-1_351_49610" maskUnits="userSpaceOnUse" x="0.695312" y="0.222656" width="317" height="55" fill="black">
<rect fill="white" x="0.695312" y="0.222656" width="317" height="55"/>
<path d="M20.6788 40.5862L12.0922 25.8442H6.40238V40.5862H1.69531V4.53312H13.3337C16.0579 4.53312 18.3511 4.99866 20.2132 5.92972C22.1098 6.86079 23.5237 8.11946 24.4548 9.70572C25.3858 11.292 25.8514 13.1024 25.8514 15.137C25.8514 17.6198 25.1272 19.8095 23.6789 21.7062C22.265 23.6028 20.127 24.8614 17.2648 25.4822L26.3169 40.5862H20.6788ZM6.40238 22.0682H13.3337C15.8855 22.0682 17.7993 21.4475 19.0753 20.2061C20.3512 18.9302 20.9891 17.2405 20.9891 15.137C20.9891 12.9989 20.3512 11.3437 19.0753 10.1713C17.8338 8.9988 15.92 8.41257 13.3337 8.41257H6.40238V22.0682Z"/>
<path d="M57.9938 25.327C57.9938 26.2236 57.9421 27.1719 57.8386 28.1719H35.1827C35.3551 30.9651 36.3034 33.1549 38.0276 34.7411C39.7863 36.2929 41.907 37.0688 44.3899 37.0688C46.4244 37.0688 48.1142 36.6033 49.459 35.6722C50.8384 34.7066 51.804 33.4307 52.3557 31.8445H57.4248C56.6662 34.5687 55.1489 36.7929 52.873 38.5171C50.597 40.2068 47.7693 41.0517 44.3899 41.0517C41.7001 41.0517 39.2863 40.4482 37.1482 39.2413C35.0447 38.0343 33.3895 36.3274 32.1825 34.1204C30.9756 31.8789 30.3721 29.2926 30.3721 26.3615C30.3721 23.4304 30.9584 20.8613 32.1308 18.6543C33.3033 16.4473 34.9413 14.7576 37.0448 13.5852C39.1828 12.3782 41.6312 11.7748 44.3899 11.7748C47.0796 11.7748 49.459 12.361 51.5281 13.5335C53.5971 14.7059 55.1834 16.3267 56.2869 18.3957C57.4248 20.4303 57.9938 22.7407 57.9938 25.327ZM53.1316 24.3442C53.1316 22.551 52.735 21.0165 51.9419 19.7406C51.1488 18.4302 50.0625 17.4474 48.6831 16.7922C47.3383 16.1025 45.8382 15.7577 44.183 15.7577C41.8036 15.7577 39.769 16.5163 38.0793 18.0336C36.4241 19.5509 35.4758 21.6544 35.2344 24.3442H53.1316Z"/>
<path d="M61.4138 26.3098C61.4138 23.4131 62 20.8785 63.1725 18.7061C64.3449 16.4991 65.9485 14.7921 67.983 13.5852C70.052 12.3782 72.3452 11.7748 74.8626 11.7748C77.3454 11.7748 79.5007 12.3093 81.3283 13.3783C83.156 14.4473 84.5181 15.7922 85.4147 17.4129V12.2403H90.1735V40.5862H85.4147V35.3101C84.4836 36.9653 83.087 38.3447 81.2249 39.4482C79.3972 40.5172 77.2592 41.0517 74.8108 41.0517C72.2935 41.0517 70.0176 40.431 67.983 39.1896C65.9485 37.9481 64.3449 36.2067 63.1725 33.9652C62 31.7238 61.4138 29.1719 61.4138 26.3098ZM85.4147 26.3615C85.4147 24.2235 84.9836 22.3614 84.1215 20.7751C83.2594 19.1888 82.087 17.9819 80.6042 17.1543C79.1558 16.2922 77.5523 15.8611 75.7936 15.8611C74.035 15.8611 72.4314 16.2749 70.9831 17.1025C69.5348 17.9302 68.3796 19.1371 67.5175 20.7234C66.6554 22.3096 66.2243 24.1718 66.2243 26.3098C66.2243 28.4823 66.6554 30.3789 67.5175 31.9996C68.3796 33.5859 69.5348 34.8101 70.9831 35.6722C72.4314 36.4998 74.035 36.9136 75.7936 36.9136C77.5523 36.9136 79.1558 36.4998 80.6042 35.6722C82.087 34.8101 83.2594 33.5859 84.1215 31.9996C84.9836 30.3789 85.4147 28.4995 85.4147 26.3615Z"/>
<path d="M95.3348 26.3098C95.3348 23.4131 95.921 20.8785 97.0934 18.7061C98.2659 16.4991 99.8694 14.7921 101.904 13.5852C103.973 12.3782 106.283 11.7748 108.835 11.7748C111.042 11.7748 113.094 12.292 114.991 13.3265C116.887 14.3266 118.336 15.6542 119.336 17.3094V2.3089H124.094V40.5862H119.336V35.2584C118.405 36.9481 117.025 38.3447 115.198 39.4482C113.37 40.5172 111.232 41.0517 108.784 41.0517C106.266 41.0517 103.973 40.431 101.904 39.1896C99.8694 37.9481 98.2659 36.2067 97.0934 33.9652C95.921 31.7238 95.3348 29.1719 95.3348 26.3098ZM119.336 26.3615C119.336 24.2235 118.905 22.3614 118.042 20.7751C117.18 19.1888 116.008 17.9819 114.525 17.1543C113.077 16.2922 111.473 15.8611 109.715 15.8611C107.956 15.8611 106.352 16.2749 104.904 17.1025C103.456 17.9302 102.301 19.1371 101.438 20.7234C100.576 22.3096 100.145 24.1718 100.145 26.3098C100.145 28.4823 100.576 30.3789 101.438 31.9996C102.301 33.5859 103.456 34.8101 104.904 35.6722C106.352 36.4998 107.956 36.9136 109.715 36.9136C111.473 36.9136 113.077 36.4998 114.525 35.6722C116.008 34.8101 117.18 33.5859 118.042 31.9996C118.905 30.3789 119.336 28.4995 119.336 26.3615Z"/>
<path d="M155.429 12.2403L138.359 53.9315H133.497L139.084 40.2758L127.652 12.2403H132.877L141.773 35.2066L150.567 12.2403H155.429Z"/>
<path d="M157.368 26.3098C157.368 23.4131 157.954 20.8785 159.126 18.7061C160.299 16.4991 161.902 14.7921 163.937 13.5852C166.006 12.3782 168.299 11.7748 170.816 11.7748C173.299 11.7748 175.454 12.3093 177.282 13.3783C179.11 14.4473 180.472 15.7922 181.368 17.4129V12.2403H186.127V40.5862H181.368V35.3101C180.437 36.9653 179.041 38.3447 177.179 39.4482C175.351 40.5172 173.213 41.0517 170.765 41.0517C168.247 41.0517 165.971 40.431 163.937 39.1896C161.902 37.9481 160.299 36.2067 159.126 33.9652C157.954 31.7238 157.368 29.1719 157.368 26.3098ZM181.368 26.3615C181.368 24.2235 180.937 22.3614 180.075 20.7751C179.213 19.1888 178.041 17.9819 176.558 17.1543C175.11 16.2922 173.506 15.8611 171.747 15.8611C169.989 15.8611 168.385 16.2749 166.937 17.1025C165.489 17.9302 164.333 19.1371 163.471 20.7234C162.609 22.3096 162.178 24.1718 162.178 26.3098C162.178 28.4823 162.609 30.3789 163.471 31.9996C164.333 33.5859 165.489 34.8101 166.937 35.6722C168.385 36.4998 169.989 36.9136 171.747 36.9136C173.506 36.9136 175.11 36.4998 176.558 35.6722C178.041 34.8101 179.213 33.5859 180.075 31.9996C180.937 30.3789 181.368 28.4995 181.368 26.3615Z"/>
<path d="M191.289 26.3098C191.289 23.4131 191.875 20.8785 193.047 18.7061C194.22 16.4991 195.823 14.7921 197.858 13.5852C199.927 12.3782 202.237 11.7748 204.789 11.7748C206.996 11.7748 209.048 12.292 210.944 13.3265C212.841 14.3266 214.289 15.6542 215.289 17.3094V2.3089H220.048V40.5862H215.289V35.2584C214.358 36.9481 212.979 38.3447 211.151 39.4482C209.324 40.5172 207.186 41.0517 204.737 41.0517C202.22 41.0517 199.927 40.431 197.858 39.1896C195.823 37.9481 194.22 36.2067 193.047 33.9652C191.875 31.7238 191.289 29.1719 191.289 26.3098ZM215.289 26.3615C215.289 24.2235 214.858 22.3614 213.996 20.7751C213.134 19.1888 211.962 17.9819 210.479 17.1543C209.031 16.2922 207.427 15.8611 205.668 15.8611C203.91 15.8611 202.306 16.2749 200.858 17.1025C199.41 17.9302 198.254 19.1371 197.392 20.7234C196.53 22.3096 196.099 24.1718 196.099 26.3098C196.099 28.4823 196.53 30.3789 197.392 31.9996C198.254 33.5859 199.41 34.8101 200.858 35.6722C202.306 36.4998 203.91 36.9136 205.668 36.9136C207.427 36.9136 209.031 36.4998 210.479 35.6722C211.962 34.8101 213.134 33.5859 213.996 31.9996C214.858 30.3789 215.289 28.4995 215.289 26.3615Z"/>
<path d="M261.056 11.723C263.263 11.723 265.228 12.1886 266.952 13.1196C268.677 14.0162 270.039 15.3783 271.039 17.206C272.039 19.0336 272.539 21.2579 272.539 23.8787V40.5862H267.883V24.5511C267.883 21.7234 267.177 19.5682 265.763 18.0853C264.383 16.568 262.504 15.8094 260.125 15.8094C257.676 15.8094 255.728 16.6025 254.28 18.1888C252.831 19.7406 252.107 21.9993 252.107 24.9649V40.5862H247.452V24.5511C247.452 21.7234 246.745 19.5682 245.331 18.0853C243.952 16.568 242.072 15.8094 239.693 15.8094C237.244 15.8094 235.296 16.6025 233.848 18.1888C232.399 19.7406 231.675 21.9993 231.675 24.9649V40.5862H226.968V12.2403H231.675V16.3267C232.606 14.8438 233.848 13.7059 235.4 12.9127C236.986 12.1196 238.727 11.723 240.624 11.723C243.003 11.723 245.107 12.2575 246.934 13.3265C248.762 14.3955 250.124 15.9646 251.021 18.0336C251.814 16.0335 253.124 14.4818 254.952 13.3783C256.78 12.2748 258.814 11.723 261.056 11.723Z"/>
<path d="M281.657 7.63668C280.76 7.63668 280.001 7.32633 279.381 6.70561C278.76 6.0849 278.45 5.32625 278.45 4.42967C278.45 3.53309 278.76 2.77444 279.381 2.15372C280.001 1.53301 280.76 1.22266 281.657 1.22266C282.519 1.22266 283.243 1.53301 283.829 2.15372C284.45 2.77444 284.76 3.53309 284.76 4.42967C284.76 5.32625 284.45 6.0849 283.829 6.70561C283.243 7.32633 282.519 7.63668 281.657 7.63668ZM283.933 12.2403V40.5862H279.226V12.2403H283.933Z"/>
<path d="M304.731 11.723C308.18 11.723 310.973 12.7748 313.111 14.8783C315.249 16.9474 316.318 19.9475 316.318 23.8787V40.5862H311.663V24.5511C311.663 21.7234 310.956 19.5682 309.542 18.0853C308.128 16.568 306.197 15.8094 303.749 15.8094C301.266 15.8094 299.283 16.5853 297.8 18.1371C296.352 19.6888 295.628 21.9475 295.628 24.9132V40.5862H290.921V12.2403H295.628V16.2749C296.559 14.8266 297.817 13.7059 299.404 12.9127C301.024 12.1196 302.8 11.723 304.731 11.723Z"/>
</mask>
<path d="M20.6788 40.5862L12.0922 25.8442H6.40238V40.5862H1.69531V4.53312H13.3337C16.0579 4.53312 18.3511 4.99866 20.2132 5.92972C22.1098 6.86079 23.5237 8.11946 24.4548 9.70572C25.3858 11.292 25.8514 13.1024 25.8514 15.137C25.8514 17.6198 25.1272 19.8095 23.6789 21.7062C22.265 23.6028 20.127 24.8614 17.2648 25.4822L26.3169 40.5862H20.6788ZM6.40238 22.0682H13.3337C15.8855 22.0682 17.7993 21.4475 19.0753 20.2061C20.3512 18.9302 20.9891 17.2405 20.9891 15.137C20.9891 12.9989 20.3512 11.3437 19.0753 10.1713C17.8338 8.9988 15.92 8.41257 13.3337 8.41257H6.40238V22.0682Z" fill="white"/>
<path d="M57.9938 25.327C57.9938 26.2236 57.9421 27.1719 57.8386 28.1719H35.1827C35.3551 30.9651 36.3034 33.1549 38.0276 34.7411C39.7863 36.2929 41.907 37.0688 44.3899 37.0688C46.4244 37.0688 48.1142 36.6033 49.459 35.6722C50.8384 34.7066 51.804 33.4307 52.3557 31.8445H57.4248C56.6662 34.5687 55.1489 36.7929 52.873 38.5171C50.597 40.2068 47.7693 41.0517 44.3899 41.0517C41.7001 41.0517 39.2863 40.4482 37.1482 39.2413C35.0447 38.0343 33.3895 36.3274 32.1825 34.1204C30.9756 31.8789 30.3721 29.2926 30.3721 26.3615C30.3721 23.4304 30.9584 20.8613 32.1308 18.6543C33.3033 16.4473 34.9413 14.7576 37.0448 13.5852C39.1828 12.3782 41.6312 11.7748 44.3899 11.7748C47.0796 11.7748 49.459 12.361 51.5281 13.5335C53.5971 14.7059 55.1834 16.3267 56.2869 18.3957C57.4248 20.4303 57.9938 22.7407 57.9938 25.327ZM53.1316 24.3442C53.1316 22.551 52.735 21.0165 51.9419 19.7406C51.1488 18.4302 50.0625 17.4474 48.6831 16.7922C47.3383 16.1025 45.8382 15.7577 44.183 15.7577C41.8036 15.7577 39.769 16.5163 38.0793 18.0336C36.4241 19.5509 35.4758 21.6544 35.2344 24.3442H53.1316Z" fill="white"/>
<path d="M61.4138 26.3098C61.4138 23.4131 62 20.8785 63.1725 18.7061C64.3449 16.4991 65.9485 14.7921 67.983 13.5852C70.052 12.3782 72.3452 11.7748 74.8626 11.7748C77.3454 11.7748 79.5007 12.3093 81.3283 13.3783C83.156 14.4473 84.5181 15.7922 85.4147 17.4129V12.2403H90.1735V40.5862H85.4147V35.3101C84.4836 36.9653 83.087 38.3447 81.2249 39.4482C79.3972 40.5172 77.2592 41.0517 74.8108 41.0517C72.2935 41.0517 70.0176 40.431 67.983 39.1896C65.9485 37.9481 64.3449 36.2067 63.1725 33.9652C62 31.7238 61.4138 29.1719 61.4138 26.3098ZM85.4147 26.3615C85.4147 24.2235 84.9836 22.3614 84.1215 20.7751C83.2594 19.1888 82.087 17.9819 80.6042 17.1543C79.1558 16.2922 77.5523 15.8611 75.7936 15.8611C74.035 15.8611 72.4314 16.2749 70.9831 17.1025C69.5348 17.9302 68.3796 19.1371 67.5175 20.7234C66.6554 22.3096 66.2243 24.1718 66.2243 26.3098C66.2243 28.4823 66.6554 30.3789 67.5175 31.9996C68.3796 33.5859 69.5348 34.8101 70.9831 35.6722C72.4314 36.4998 74.035 36.9136 75.7936 36.9136C77.5523 36.9136 79.1558 36.4998 80.6042 35.6722C82.087 34.8101 83.2594 33.5859 84.1215 31.9996C84.9836 30.3789 85.4147 28.4995 85.4147 26.3615Z" fill="white"/>
<path d="M95.3348 26.3098C95.3348 23.4131 95.921 20.8785 97.0934 18.7061C98.2659 16.4991 99.8694 14.7921 101.904 13.5852C103.973 12.3782 106.283 11.7748 108.835 11.7748C111.042 11.7748 113.094 12.292 114.991 13.3265C116.887 14.3266 118.336 15.6542 119.336 17.3094V2.3089H124.094V40.5862H119.336V35.2584C118.405 36.9481 117.025 38.3447 115.198 39.4482C113.37 40.5172 111.232 41.0517 108.784 41.0517C106.266 41.0517 103.973 40.431 101.904 39.1896C99.8694 37.9481 98.2659 36.2067 97.0934 33.9652C95.921 31.7238 95.3348 29.1719 95.3348 26.3098ZM119.336 26.3615C119.336 24.2235 118.905 22.3614 118.042 20.7751C117.18 19.1888 116.008 17.9819 114.525 17.1543C113.077 16.2922 111.473 15.8611 109.715 15.8611C107.956 15.8611 106.352 16.2749 104.904 17.1025C103.456 17.9302 102.301 19.1371 101.438 20.7234C100.576 22.3096 100.145 24.1718 100.145 26.3098C100.145 28.4823 100.576 30.3789 101.438 31.9996C102.301 33.5859 103.456 34.8101 104.904 35.6722C106.352 36.4998 107.956 36.9136 109.715 36.9136C111.473 36.9136 113.077 36.4998 114.525 35.6722C116.008 34.8101 117.18 33.5859 118.042 31.9996C118.905 30.3789 119.336 28.4995 119.336 26.3615Z" fill="white"/>
<path d="M155.429 12.2403L138.359 53.9315H133.497L139.084 40.2758L127.652 12.2403H132.877L141.773 35.2066L150.567 12.2403H155.429Z" fill="white"/>
<path d="M157.368 26.3098C157.368 23.4131 157.954 20.8785 159.126 18.7061C160.299 16.4991 161.902 14.7921 163.937 13.5852C166.006 12.3782 168.299 11.7748 170.816 11.7748C173.299 11.7748 175.454 12.3093 177.282 13.3783C179.11 14.4473 180.472 15.7922 181.368 17.4129V12.2403H186.127V40.5862H181.368V35.3101C180.437 36.9653 179.041 38.3447 177.179 39.4482C175.351 40.5172 173.213 41.0517 170.765 41.0517C168.247 41.0517 165.971 40.431 163.937 39.1896C161.902 37.9481 160.299 36.2067 159.126 33.9652C157.954 31.7238 157.368 29.1719 157.368 26.3098ZM181.368 26.3615C181.368 24.2235 180.937 22.3614 180.075 20.7751C179.213 19.1888 178.041 17.9819 176.558 17.1543C175.11 16.2922 173.506 15.8611 171.747 15.8611C169.989 15.8611 168.385 16.2749 166.937 17.1025C165.489 17.9302 164.333 19.1371 163.471 20.7234C162.609 22.3096 162.178 24.1718 162.178 26.3098C162.178 28.4823 162.609 30.3789 163.471 31.9996C164.333 33.5859 165.489 34.8101 166.937 35.6722C168.385 36.4998 169.989 36.9136 171.747 36.9136C173.506 36.9136 175.11 36.4998 176.558 35.6722C178.041 34.8101 179.213 33.5859 180.075 31.9996C180.937 30.3789 181.368 28.4995 181.368 26.3615Z" fill="white"/>
<path d="M191.289 26.3098C191.289 23.4131 191.875 20.8785 193.047 18.7061C194.22 16.4991 195.823 14.7921 197.858 13.5852C199.927 12.3782 202.237 11.7748 204.789 11.7748C206.996 11.7748 209.048 12.292 210.944 13.3265C212.841 14.3266 214.289 15.6542 215.289 17.3094V2.3089H220.048V40.5862H215.289V35.2584C214.358 36.9481 212.979 38.3447 211.151 39.4482C209.324 40.5172 207.186 41.0517 204.737 41.0517C202.22 41.0517 199.927 40.431 197.858 39.1896C195.823 37.9481 194.22 36.2067 193.047 33.9652C191.875 31.7238 191.289 29.1719 191.289 26.3098ZM215.289 26.3615C215.289 24.2235 214.858 22.3614 213.996 20.7751C213.134 19.1888 211.962 17.9819 210.479 17.1543C209.031 16.2922 207.427 15.8611 205.668 15.8611C203.91 15.8611 202.306 16.2749 200.858 17.1025C199.41 17.9302 198.254 19.1371 197.392 20.7234C196.53 22.3096 196.099 24.1718 196.099 26.3098C196.099 28.4823 196.53 30.3789 197.392 31.9996C198.254 33.5859 199.41 34.8101 200.858 35.6722C202.306 36.4998 203.91 36.9136 205.668 36.9136C207.427 36.9136 209.031 36.4998 210.479 35.6722C211.962 34.8101 213.134 33.5859 213.996 31.9996C214.858 30.3789 215.289 28.4995 215.289 26.3615Z" fill="white"/>
<path d="M261.056 11.723C263.263 11.723 265.228 12.1886 266.952 13.1196C268.677 14.0162 270.039 15.3783 271.039 17.206C272.039 19.0336 272.539 21.2579 272.539 23.8787V40.5862H267.883V24.5511C267.883 21.7234 267.177 19.5682 265.763 18.0853C264.383 16.568 262.504 15.8094 260.125 15.8094C257.676 15.8094 255.728 16.6025 254.28 18.1888C252.831 19.7406 252.107 21.9993 252.107 24.9649V40.5862H247.452V24.5511C247.452 21.7234 246.745 19.5682 245.331 18.0853C243.952 16.568 242.072 15.8094 239.693 15.8094C237.244 15.8094 235.296 16.6025 233.848 18.1888C232.399 19.7406 231.675 21.9993 231.675 24.9649V40.5862H226.968V12.2403H231.675V16.3267C232.606 14.8438 233.848 13.7059 235.4 12.9127C236.986 12.1196 238.727 11.723 240.624 11.723C243.003 11.723 245.107 12.2575 246.934 13.3265C248.762 14.3955 250.124 15.9646 251.021 18.0336C251.814 16.0335 253.124 14.4818 254.952 13.3783C256.78 12.2748 258.814 11.723 261.056 11.723Z" fill="white"/>
<path d="M281.657 7.63668C280.76 7.63668 280.001 7.32633 279.381 6.70561C278.76 6.0849 278.45 5.32625 278.45 4.42967C278.45 3.53309 278.76 2.77444 279.381 2.15372C280.001 1.53301 280.76 1.22266 281.657 1.22266C282.519 1.22266 283.243 1.53301 283.829 2.15372C284.45 2.77444 284.76 3.53309 284.76 4.42967C284.76 5.32625 284.45 6.0849 283.829 6.70561C283.243 7.32633 282.519 7.63668 281.657 7.63668ZM283.933 12.2403V40.5862H279.226V12.2403H283.933Z" fill="white"/>
<path d="M304.731 11.723C308.18 11.723 310.973 12.7748 313.111 14.8783C315.249 16.9474 316.318 19.9475 316.318 23.8787V40.5862H311.663V24.5511C311.663 21.7234 310.956 19.5682 309.542 18.0853C308.128 16.568 306.197 15.8094 303.749 15.8094C301.266 15.8094 299.283 16.5853 297.8 18.1371C296.352 19.6888 295.628 21.9475 295.628 24.9132V40.5862H290.921V12.2403H295.628V16.2749C296.559 14.8266 297.817 13.7059 299.404 12.9127C301.024 12.1196 302.8 11.723 304.731 11.723Z" fill="white"/>
<path d="M20.6788 40.5862L12.0922 25.8442H6.40238V40.5862H1.69531V4.53312H13.3337C16.0579 4.53312 18.3511 4.99866 20.2132 5.92972C22.1098 6.86079 23.5237 8.11946 24.4548 9.70572C25.3858 11.292 25.8514 13.1024 25.8514 15.137C25.8514 17.6198 25.1272 19.8095 23.6789 21.7062C22.265 23.6028 20.127 24.8614 17.2648 25.4822L26.3169 40.5862H20.6788ZM6.40238 22.0682H13.3337C15.8855 22.0682 17.7993 21.4475 19.0753 20.2061C20.3512 18.9302 20.9891 17.2405 20.9891 15.137C20.9891 12.9989 20.3512 11.3437 19.0753 10.1713C17.8338 8.9988 15.92 8.41257 13.3337 8.41257H6.40238V22.0682Z" stroke="white" stroke-width="1.43683" mask="url(#path-1-outside-1_351_49610)"/>
<path d="M57.9938 25.327C57.9938 26.2236 57.9421 27.1719 57.8386 28.1719H35.1827C35.3551 30.9651 36.3034 33.1549 38.0276 34.7411C39.7863 36.2929 41.907 37.0688 44.3899 37.0688C46.4244 37.0688 48.1142 36.6033 49.459 35.6722C50.8384 34.7066 51.804 33.4307 52.3557 31.8445H57.4248C56.6662 34.5687 55.1489 36.7929 52.873 38.5171C50.597 40.2068 47.7693 41.0517 44.3899 41.0517C41.7001 41.0517 39.2863 40.4482 37.1482 39.2413C35.0447 38.0343 33.3895 36.3274 32.1825 34.1204C30.9756 31.8789 30.3721 29.2926 30.3721 26.3615C30.3721 23.4304 30.9584 20.8613 32.1308 18.6543C33.3033 16.4473 34.9413 14.7576 37.0448 13.5852C39.1828 12.3782 41.6312 11.7748 44.3899 11.7748C47.0796 11.7748 49.459 12.361 51.5281 13.5335C53.5971 14.7059 55.1834 16.3267 56.2869 18.3957C57.4248 20.4303 57.9938 22.7407 57.9938 25.327ZM53.1316 24.3442C53.1316 22.551 52.735 21.0165 51.9419 19.7406C51.1488 18.4302 50.0625 17.4474 48.6831 16.7922C47.3383 16.1025 45.8382 15.7577 44.183 15.7577C41.8036 15.7577 39.769 16.5163 38.0793 18.0336C36.4241 19.5509 35.4758 21.6544 35.2344 24.3442H53.1316Z" stroke="white" stroke-width="1.43683" mask="url(#path-1-outside-1_351_49610)"/>
<path d="M61.4138 26.3098C61.4138 23.4131 62 20.8785 63.1725 18.7061C64.3449 16.4991 65.9485 14.7921 67.983 13.5852C70.052 12.3782 72.3452 11.7748 74.8626 11.7748C77.3454 11.7748 79.5007 12.3093 81.3283 13.3783C83.156 14.4473 84.5181 15.7922 85.4147 17.4129V12.2403H90.1735V40.5862H85.4147V35.3101C84.4836 36.9653 83.087 38.3447 81.2249 39.4482C79.3972 40.5172 77.2592 41.0517 74.8108 41.0517C72.2935 41.0517 70.0176 40.431 67.983 39.1896C65.9485 37.9481 64.3449 36.2067 63.1725 33.9652C62 31.7238 61.4138 29.1719 61.4138 26.3098ZM85.4147 26.3615C85.4147 24.2235 84.9836 22.3614 84.1215 20.7751C83.2594 19.1888 82.087 17.9819 80.6042 17.1543C79.1558 16.2922 77.5523 15.8611 75.7936 15.8611C74.035 15.8611 72.4314 16.2749 70.9831 17.1025C69.5348 17.9302 68.3796 19.1371 67.5175 20.7234C66.6554 22.3096 66.2243 24.1718 66.2243 26.3098C66.2243 28.4823 66.6554 30.3789 67.5175 31.9996C68.3796 33.5859 69.5348 34.8101 70.9831 35.6722C72.4314 36.4998 74.035 36.9136 75.7936 36.9136C77.5523 36.9136 79.1558 36.4998 80.6042 35.6722C82.087 34.8101 83.2594 33.5859 84.1215 31.9996C84.9836 30.3789 85.4147 28.4995 85.4147 26.3615Z" stroke="white" stroke-width="1.43683" mask="url(#path-1-outside-1_351_49610)"/>
<path d="M95.3348 26.3098C95.3348 23.4131 95.921 20.8785 97.0934 18.7061C98.2659 16.4991 99.8694 14.7921 101.904 13.5852C103.973 12.3782 106.283 11.7748 108.835 11.7748C111.042 11.7748 113.094 12.292 114.991 13.3265C116.887 14.3266 118.336 15.6542 119.336 17.3094V2.3089H124.094V40.5862H119.336V35.2584C118.405 36.9481 117.025 38.3447 115.198 39.4482C113.37 40.5172 111.232 41.0517 108.784 41.0517C106.266 41.0517 103.973 40.431 101.904 39.1896C99.8694 37.9481 98.2659 36.2067 97.0934 33.9652C95.921 31.7238 95.3348 29.1719 95.3348 26.3098ZM119.336 26.3615C119.336 24.2235 118.905 22.3614 118.042 20.7751C117.18 19.1888 116.008 17.9819 114.525 17.1543C113.077 16.2922 111.473 15.8611 109.715 15.8611C107.956 15.8611 106.352 16.2749 104.904 17.1025C103.456 17.9302 102.301 19.1371 101.438 20.7234C100.576 22.3096 100.145 24.1718 100.145 26.3098C100.145 28.4823 100.576 30.3789 101.438 31.9996C102.301 33.5859 103.456 34.8101 104.904 35.6722C106.352 36.4998 107.956 36.9136 109.715 36.9136C111.473 36.9136 113.077 36.4998 114.525 35.6722C116.008 34.8101 117.18 33.5859 118.042 31.9996C118.905 30.3789 119.336 28.4995 119.336 26.3615Z" stroke="white" stroke-width="1.43683" mask="url(#path-1-outside-1_351_49610)"/>
<path d="M155.429 12.2403L138.359 53.9315H133.497L139.084 40.2758L127.652 12.2403H132.877L141.773 35.2066L150.567 12.2403H155.429Z" stroke="white" stroke-width="1.43683" mask="url(#path-1-outside-1_351_49610)"/>
<path d="M157.368 26.3098C157.368 23.4131 157.954 20.8785 159.126 18.7061C160.299 16.4991 161.902 14.7921 163.937 13.5852C166.006 12.3782 168.299 11.7748 170.816 11.7748C173.299 11.7748 175.454 12.3093 177.282 13.3783C179.11 14.4473 180.472 15.7922 181.368 17.4129V12.2403H186.127V40.5862H181.368V35.3101C180.437 36.9653 179.041 38.3447 177.179 39.4482C175.351 40.5172 173.213 41.0517 170.765 41.0517C168.247 41.0517 165.971 40.431 163.937 39.1896C161.902 37.9481 160.299 36.2067 159.126 33.9652C157.954 31.7238 157.368 29.1719 157.368 26.3098ZM181.368 26.3615C181.368 24.2235 180.937 22.3614 180.075 20.7751C179.213 19.1888 178.041 17.9819 176.558 17.1543C175.11 16.2922 173.506 15.8611 171.747 15.8611C169.989 15.8611 168.385 16.2749 166.937 17.1025C165.489 17.9302 164.333 19.1371 163.471 20.7234C162.609 22.3096 162.178 24.1718 162.178 26.3098C162.178 28.4823 162.609 30.3789 163.471 31.9996C164.333 33.5859 165.489 34.8101 166.937 35.6722C168.385 36.4998 169.989 36.9136 171.747 36.9136C173.506 36.9136 175.11 36.4998 176.558 35.6722C178.041 34.8101 179.213 33.5859 180.075 31.9996C180.937 30.3789 181.368 28.4995 181.368 26.3615Z" stroke="white" stroke-width="1.43683" mask="url(#path-1-outside-1_351_49610)"/>
<path d="M191.289 26.3098C191.289 23.4131 191.875 20.8785 193.047 18.7061C194.22 16.4991 195.823 14.7921 197.858 13.5852C199.927 12.3782 202.237 11.7748 204.789 11.7748C206.996 11.7748 209.048 12.292 210.944 13.3265C212.841 14.3266 214.289 15.6542 215.289 17.3094V2.3089H220.048V40.5862H215.289V35.2584C214.358 36.9481 212.979 38.3447 211.151 39.4482C209.324 40.5172 207.186 41.0517 204.737 41.0517C202.22 41.0517 199.927 40.431 197.858 39.1896C195.823 37.9481 194.22 36.2067 193.047 33.9652C191.875 31.7238 191.289 29.1719 191.289 26.3098ZM215.289 26.3615C215.289 24.2235 214.858 22.3614 213.996 20.7751C213.134 19.1888 211.962 17.9819 210.479 17.1543C209.031 16.2922 207.427 15.8611 205.668 15.8611C203.91 15.8611 202.306 16.2749 200.858 17.1025C199.41 17.9302 198.254 19.1371 197.392 20.7234C196.53 22.3096 196.099 24.1718 196.099 26.3098C196.099 28.4823 196.53 30.3789 197.392 31.9996C198.254 33.5859 199.41 34.8101 200.858 35.6722C202.306 36.4998 203.91 36.9136 205.668 36.9136C207.427 36.9136 209.031 36.4998 210.479 35.6722C211.962 34.8101 213.134 33.5859 213.996 31.9996C214.858 30.3789 215.289 28.4995 215.289 26.3615Z" stroke="white" stroke-width="1.43683" mask="url(#path-1-outside-1_351_49610)"/>
<path d="M261.056 11.723C263.263 11.723 265.228 12.1886 266.952 13.1196C268.677 14.0162 270.039 15.3783 271.039 17.206C272.039 19.0336 272.539 21.2579 272.539 23.8787V40.5862H267.883V24.5511C267.883 21.7234 267.177 19.5682 265.763 18.0853C264.383 16.568 262.504 15.8094 260.125 15.8094C257.676 15.8094 255.728 16.6025 254.28 18.1888C252.831 19.7406 252.107 21.9993 252.107 24.9649V40.5862H247.452V24.5511C247.452 21.7234 246.745 19.5682 245.331 18.0853C243.952 16.568 242.072 15.8094 239.693 15.8094C237.244 15.8094 235.296 16.6025 233.848 18.1888C232.399 19.7406 231.675 21.9993 231.675 24.9649V40.5862H226.968V12.2403H231.675V16.3267C232.606 14.8438 233.848 13.7059 235.4 12.9127C236.986 12.1196 238.727 11.723 240.624 11.723C243.003 11.723 245.107 12.2575 246.934 13.3265C248.762 14.3955 250.124 15.9646 251.021 18.0336C251.814 16.0335 253.124 14.4818 254.952 13.3783C256.78 12.2748 258.814 11.723 261.056 11.723Z" stroke="white" stroke-width="1.43683" mask="url(#path-1-outside-1_351_49610)"/>
<path d="M281.657 7.63668C280.76 7.63668 280.001 7.32633 279.381 6.70561C278.76 6.0849 278.45 5.32625 278.45 4.42967C278.45 3.53309 278.76 2.77444 279.381 2.15372C280.001 1.53301 280.76 1.22266 281.657 1.22266C282.519 1.22266 283.243 1.53301 283.829 2.15372C284.45 2.77444 284.76 3.53309 284.76 4.42967C284.76 5.32625 284.45 6.0849 283.829 6.70561C283.243 7.32633 282.519 7.63668 281.657 7.63668ZM283.933 12.2403V40.5862H279.226V12.2403H283.933Z" stroke="white" stroke-width="1.43683" mask="url(#path-1-outside-1_351_49610)"/>
<path d="M304.731 11.723C308.18 11.723 310.973 12.7748 313.111 14.8783C315.249 16.9474 316.318 19.9475 316.318 23.8787V40.5862H311.663V24.5511C311.663 21.7234 310.956 19.5682 309.542 18.0853C308.128 16.568 306.197 15.8094 303.749 15.8094C301.266 15.8094 299.283 16.5853 297.8 18.1371C296.352 19.6888 295.628 21.9475 295.628 24.9132V40.5862H290.921V12.2403H295.628V16.2749C296.559 14.8266 297.817 13.7059 299.404 12.9127C301.024 12.1196 302.8 11.723 304.731 11.723Z" stroke="white" stroke-width="1.43683" mask="url(#path-1-outside-1_351_49610)"/>
</svg>
