<svg width="15" height="15" viewBox="0 0 15 15" fill="none" xmlns="http://www.w3.org/2000/svg">
<path d="M7.99911 1.66671C10.9391 1.66671 13.3324 4.06004 13.3324 7.00004C13.3324 7.98671 13.0591 8.90671 12.5858 9.70671L13.5591 10.68C14.2823 9.5891 14.6673 8.30891 14.6658 7.00004C14.6658 3.32004 11.6791 0.333374 7.99911 0.333374C6.63911 0.333374 5.37911 0.740041 4.32578 1.44004L5.29911 2.41337C6.11481 1.92438 7.04808 1.66629 7.99911 1.66671ZM11.3324 7.66671V6.33337H9.21911L10.5524 7.66671H11.3324ZM0.925781 1.81337L2.43911 3.32671C1.71464 4.41456 1.32948 5.69303 1.33245 7.00004C1.33245 10.68 4.31911 13.6667 7.99911 13.6667C9.35911 13.6667 10.6191 13.26 11.6724 12.56L13.1858 14.0734L14.1258 13.1334L1.87245 0.873374L0.925781 1.81337ZM3.41245 4.29337L5.44578 6.33337H4.66578V7.66671H6.77911L10.6991 11.5867C9.88342 12.0757 8.95015 12.3338 7.99911 12.3334C5.05911 12.3334 2.66578 9.94004 2.66578 7.00004C2.66578 6.01337 2.93911 5.09337 3.41245 4.29337Z" fill="#949494"/>
</svg>
