<svg width="33" height="33" viewBox="0 0 33 33" fill="none" xmlns="http://www.w3.org/2000/svg">
<rect width="32.8564" height="32.8564" rx="16.4282" fill="#5AACDC" fill-opacity="0.2"/>
<path d="M23.4793 13.0333C23.0792 12.0786 22.4973 11.2109 21.7659 10.4784C21.0367 9.74473 20.1704 9.16138 19.2164 8.76152C18.239 8.3499 17.1889 8.1389 16.1284 8.14107H16.0927C15.0141 8.14642 13.9711 8.36036 12.9887 8.78113C12.0428 9.18509 11.1847 9.76948 10.4623 10.5016C9.73801 11.2324 9.16275 12.0971 8.7686 13.0476C8.35946 14.036 8.15214 15.0962 8.15885 16.1659C8.1642 17.4032 8.46016 18.6316 9.01286 19.7299V22.4399C9.01286 22.8927 9.38013 23.26 9.8312 23.26H12.5376C13.641 23.8168 14.8586 24.1098 16.0945 24.1158H16.132C17.1981 24.1158 18.2304 23.909 19.2039 23.5043C20.1531 23.1092 21.0161 22.5326 21.7445 21.807C22.4791 21.0778 23.0567 20.2255 23.4614 19.2752C23.8804 18.2911 24.0944 17.2445 24.0997 16.1641C24.1033 15.0783 23.8929 14.0246 23.4793 13.0333ZM12.5697 16.9842C12.099 16.9842 11.7157 16.6009 11.7157 16.1284C11.7157 15.656 12.099 15.2726 12.5697 15.2726C13.0404 15.2726 13.4237 15.656 13.4237 16.1284C13.4237 16.6009 13.0422 16.9842 12.5697 16.9842ZM16.1284 16.9842C15.6577 16.9842 15.2744 16.6009 15.2744 16.1284C15.2744 15.656 15.6577 15.2726 16.1284 15.2726C16.5991 15.2726 16.9824 15.656 16.9824 16.1284C16.9824 16.6009 16.5991 16.9842 16.1284 16.9842ZM19.687 16.9842C19.2164 16.9842 18.833 16.6009 18.833 16.1284C18.833 15.656 19.2164 15.2726 19.687 15.2726C20.1577 15.2726 20.541 15.656 20.541 16.1284C20.541 16.6009 20.1577 16.9842 19.687 16.9842Z" fill="#5AACDC"/>
</svg>
